<svg width="16" height="11" viewBox="0 0 16 11" fill="none" xmlns="http://www.w3.org/2000/svg">
<path d="M14.71 0.709983C14.617 0.616254 14.5064 0.54186 14.3846 0.491091C14.2627 0.440323 14.132 0.414185 14 0.414185C13.868 0.414185 13.7373 0.440323 13.6154 0.491091C13.4936 0.54186 13.383 0.616254 13.29 0.709983L5.84001 8.16998L2.71001 5.02998C2.61349 4.93674 2.49955 4.86343 2.37469 4.81423C2.24984 4.76502 2.11651 4.74089 1.98233 4.74321C1.84815 4.74553 1.71574 4.77426 1.59266 4.82776C1.46959 4.88125 1.35825 4.95846 1.26501 5.05498C1.17177 5.1515 1.09846 5.26545 1.04925 5.3903C1.00005 5.51516 0.97592 5.64848 0.978241 5.78266C0.980563 5.91684 1.00929 6.04925 1.06278 6.17233C1.11628 6.29541 1.19349 6.40674 1.29001 6.49998L5.13001 10.34C5.22297 10.4337 5.33357 10.5081 5.45543 10.5589C5.57729 10.6096 5.708 10.6358 5.84001 10.6358C5.97202 10.6358 6.10273 10.6096 6.22459 10.5589C6.34645 10.5081 6.45705 10.4337 6.55001 10.34L14.71 2.17998C14.8115 2.08634 14.8925 1.97269 14.9479 1.84619C15.0033 1.71969 15.0319 1.58308 15.0319 1.44498C15.0319 1.30688 15.0033 1.17028 14.9479 1.04378C14.8925 0.917277 14.8115 0.803625 14.71 0.709983Z" fill="white"/>
</svg>
