<svg width="80" height="41" viewBox="0 0 80 41" fill="none" xmlns="http://www.w3.org/2000/svg">
<path fill-rule="evenodd" clip-rule="evenodd" d="M75.7429 6.17587C60.7279 34.0958 30.7341 45.4468 2.87628 29.7286C1.94889 29.2052 0.772852 29.5324 0.249455 30.4483C-0.273941 31.3806 0.0532166 32.5583 0.98061 33.0816C30.8404 49.9448 63.044 37.9231 79.1384 8.00775C79.6422 7.07545 79.2905 5.89765 78.3533 5.39061C77.4161 4.89992 76.2467 5.24357 75.7429 6.17587Z" fill="#F5FA93"/>
<path d="M26.3194 17.7542C29.4209 17.7542 31.9353 15.2399 31.9353 12.1384C31.9353 9.03676 29.4209 6.52246 26.3194 6.52246C23.2178 6.52246 20.7035 9.03676 20.7035 12.1384C20.7035 15.2399 23.2178 17.7542 26.3194 17.7542Z" fill="#F5FA93"/>
<path d="M49.5684 11.7803C52.6094 11.7803 55.0746 9.31517 55.0746 6.2742C55.0746 3.23322 52.6094 0.768066 49.5684 0.768066C46.5274 0.768066 44.0623 3.23322 44.0623 6.2742C44.0623 9.31517 46.5274 11.7803 49.5684 11.7803Z" fill="#F5FA93"/>
</svg>
